<svg width="24" height="24" viewBox="0 0 24 24" fill="none" xmlns="http://www.w3.org/2000/svg">
<path fill-rule="evenodd" clip-rule="evenodd" d="M9.9139 3.07215C8.69986 3.76531 8.18969 4.47753 7.94806 5.21859C7.68864 6.01421 7.70765 6.91157 7.73289 8.10331C7.73343 8.12891 7.73398 8.15466 7.73452 8.18054C7.73546 8.22525 7.73247 8.26913 7.72587 8.31185C8.01848 8.30533 8.29306 8.29838 8.56347 8.29154C9.47581 8.26845 10.3407 8.24656 11.6907 8.24656C12.6759 8.24656 13.6031 8.26548 14.2835 8.28436C14.6239 8.29381 14.903 8.30326 15.0974 8.31036C15.1526 8.31238 15.2009 8.31421 15.2419 8.31579C15.2346 8.12831 15.2402 7.91184 15.2461 7.70635C15.247 7.67484 15.2479 7.6431 15.2489 7.61114C15.2558 7.37452 15.2631 7.12552 15.2618 6.86538C15.2589 6.27686 15.2101 5.72084 15.0563 5.29331C15.0273 5.23249 15.0032 5.17217 14.987 5.13159L14.9856 5.128C14.9807 5.11588 14.976 5.10397 14.9713 5.09216C14.9502 5.03912 14.9299 4.98815 14.905 4.92997C14.8466 4.79375 14.7684 4.63185 14.65 4.45042C14.4198 4.09755 14.0116 3.63095 13.2387 3.15706C11.8314 2.50829 10.7124 2.75586 9.9139 3.07215ZM15.3378 9.82088L15.3191 9.82008L15.2622 9.81775C15.212 9.81574 15.1378 9.81284 15.0426 9.80936C14.8521 9.8024 14.5774 9.79309 14.2419 9.78378C13.5706 9.76515 12.6579 9.74656 11.6907 9.74656C10.3598 9.74656 9.5226 9.76777 8.61924 9.79066C8.20313 9.80121 7.77298 9.81211 7.27408 9.82145L7.2577 9.82176L7.24131 9.82135C6.34012 9.79884 4.87868 10.0006 4.18319 11.6107C3.93635 12.3815 3.79102 13.6338 3.75751 14.967C3.72384 16.3063 3.80502 17.6303 3.96681 18.4846L3.97437 18.5246L3.97758 18.5651C4.03733 19.3212 4.42787 20.3577 5.66605 20.9163L5.68665 20.9256L5.70665 20.9362C6.0218 21.1019 6.49282 21.1761 7.12641 21.2007C7.37055 21.2101 7.61656 21.212 7.87251 21.214C7.93942 21.2146 8.00701 21.2151 8.07543 21.2158C8.39637 21.2189 8.73297 21.2252 9.05215 21.2529C9.46481 21.2888 9.77027 21.6523 9.73443 22.065C9.69858 22.4777 9.33499 22.7831 8.92233 22.7473C8.66577 22.725 8.3797 22.7188 8.06077 22.7157C7.99928 22.7151 7.93635 22.7146 7.87235 22.7141C7.61395 22.7121 7.33804 22.71 7.06826 22.6995C6.41987 22.6744 5.66143 22.5999 5.02949 22.2747C3.20149 21.4407 2.58721 19.8624 2.48574 18.7248C2.30225 17.7303 2.22327 16.3102 2.25798 14.9293C2.29287 13.5413 2.44464 12.0953 2.76776 11.1129L2.77734 11.0838L2.78925 11.0555C3.58424 9.17217 5.09131 8.56118 6.25851 8.38456C6.24425 8.32935 6.23611 8.27163 6.23485 8.21214C6.23351 8.14837 6.23209 8.0844 6.23066 8.02027C6.20647 6.93278 6.18124 5.79854 6.52195 4.7536C6.90335 3.58389 7.71089 2.59099 9.22003 1.74124L9.26191 1.71766L9.30647 1.69961C10.351 1.27657 11.958 0.89737 13.9122 1.81605L13.9477 1.83276L13.9813 1.8531C14.9637 2.44745 15.5463 3.07907 15.9063 3.63076C16.0847 3.90416 16.2018 4.14785 16.2838 4.33944C16.3171 4.41713 16.3456 4.48874 16.3669 4.54222C16.371 4.55259 16.3748 4.56229 16.3784 4.57121C16.4007 4.62689 16.4082 4.64324 16.4081 4.64331C16.4081 4.64332 16.4083 4.64368 16.4081 4.64331L16.43 4.68428L16.4474 4.73019C16.7097 5.42384 16.7586 6.21732 16.7618 6.85783C16.7633 7.1457 16.7551 7.42165 16.7482 7.6565C16.7472 7.68823 16.7463 7.7192 16.7455 7.74936C16.7377 8.01912 16.7351 8.1986 16.744 8.31381C16.7475 8.36014 16.7468 8.4058 16.7421 8.45042C18.3657 8.81195 19.275 9.85401 19.6735 10.6671C19.8558 11.039 19.702 11.4883 19.33 11.6706C18.9581 11.8529 18.5088 11.6991 18.3265 11.3272C18.0425 10.7477 17.2291 9.77909 15.3876 9.82138L15.3627 9.82196L15.3378 9.82088Z" fill="#AB8740"/>
<path opacity="0.4" fill-rule="evenodd" clip-rule="evenodd" d="M19.2979 15.8476L20.1306 15.0464L20.1874 14.9973C20.2524 14.941 20.3062 14.8944 20.3735 14.8446C20.4587 14.7815 20.5253 14.7454 20.576 14.7279C20.6193 14.713 20.6402 14.7149 20.6555 14.7183C20.6722 14.722 20.7399 14.7411 20.8546 14.8508L22.4847 16.393C22.7855 16.6777 23.2602 16.6645 23.5449 16.3637C23.8296 16.0628 23.8164 15.5881 23.5155 15.3034L21.8899 13.7654C21.6185 13.5062 21.3156 13.3291 20.9837 13.2546C20.6496 13.1797 20.3428 13.2215 20.0865 13.31C19.6686 13.4543 19.3299 13.7528 19.1829 13.8823C19.1661 13.8972 19.1517 13.9098 19.14 13.9197L19.1228 13.9345L17.6956 15.3078L15.7921 17.1655C15.3422 16.8962 14.8162 16.7417 14.2553 16.7417C12.612 16.7417 11.25 18.0704 11.25 19.7354C11.25 21.4062 12.6179 22.7158 14.2553 22.7158C15.8973 22.7158 17.25 21.4016 17.25 19.7354C17.25 19.1866 17.1029 18.6735 16.8464 18.2325L18.2199 16.892L19.3057 17.9346C19.6044 18.2214 20.0792 18.2118 20.3661 17.913C20.653 17.6142 20.6433 17.1394 20.3445 16.8526L19.2979 15.8476ZM12.75 19.7354C12.75 18.9123 13.4268 18.2417 14.2553 18.2417C15.0791 18.2417 15.75 18.9078 15.75 19.7354C15.75 20.5572 15.085 21.2158 14.2553 21.2158C13.421 21.2158 12.75 20.5527 12.75 19.7354Z" fill="#AB8740"/>
</svg>
