<svg width="24" height="24" viewBox="0 0 24 24" fill="none" xmlns="http://www.w3.org/2000/svg">
<path d="M12.962 15.0229C13.109 15.1739 13.304 15.2499 13.5 15.2499V15.2469C13.689 15.2469 13.877 15.1769 14.023 15.0349C14.131 14.9299 14.372 14.7409 14.627 14.5409C15.87 13.5649 16.75 12.8119 16.75 11.9969C16.75 11.1839 15.87 10.4299 14.627 9.45389C14.372 9.25388 14.131 9.06489 14.023 8.95989C13.725 8.67089 13.251 8.67788 12.962 8.97488C12.673 9.27188 12.68 9.74687 12.977 10.0359C13.141 10.1959 13.388 10.3899 13.7 10.6349C13.7131 10.6452 13.7267 10.656 13.7409 10.6671C13.9263 10.8134 14.197 11.0268 14.459 11.2489L8 11.2489C7.586 11.2489 7.25 11.5849 7.25 11.9989C7.25 12.4129 7.586 12.7489 8 12.7489L14.459 12.7489C14.177 12.9889 13.885 13.2179 13.7 13.3629C13.388 13.6079 13.142 13.8019 12.977 13.9619C12.68 14.2509 12.673 14.7259 12.962 15.0229Z" fill="#EC2D30"/>
<path fill-rule="evenodd" clip-rule="evenodd" d="M11.9999 22.25C16.6788 22.25 19.028 22.25 20.639 20.639C22.25 19.029 22.25 16.679 22.25 12C22.25 7.321 22.25 4.97199 20.639 3.36099C19.029 1.75 16.679 1.75 12.0001 1.75C7.3212 1.75 4.97197 1.75 3.36099 3.36099C1.75 4.97097 1.75 7.32096 1.75 11.9999C1.75 16.6788 1.75 19.028 3.36099 20.639C4.97097 22.25 7.31996 22.25 11.9999 22.25ZM12 3.25C16.2659 3.25 18.408 3.25 19.579 4.421C20.75 5.59299 20.75 7.73399 20.75 12C20.75 16.2659 20.75 18.408 19.579 19.579C18.407 20.75 16.266 20.75 12 20.75C7.73407 20.75 5.59199 20.75 4.421 19.579C3.25 18.407 3.25 16.266 3.25 12C3.25 7.73407 3.25 5.59199 4.421 4.421C5.59299 3.25 7.73399 3.25 12 3.25Z" fill="#EC2D30"/>
</svg>
